<svg width="26" height="26" viewBox="0 0 26 26" fill="none" xmlns="http://www.w3.org/2000/svg">
<path d="M21.5901 1.6416H4.40265C3.78105 1.6416 3.18491 1.88853 2.74537 2.32807C2.30583 2.76761 2.0589 3.36375 2.0589 3.98535L2.0589 21.1729C2.0589 21.7945 2.30583 22.3906 2.74537 22.8301C3.18491 23.2697 3.78105 23.5166 4.40265 23.5166H21.5901C22.2118 23.5166 22.8079 23.2697 23.2474 22.8301C23.687 22.3906 23.9339 21.7945 23.9339 21.1729V3.98535C23.9339 3.36375 23.687 2.76761 23.2474 2.32807C22.8079 1.88853 22.2118 1.6416 21.5901 1.6416ZM20.7899 16.6499L20.0574 19.8237C20.0202 19.9851 19.9294 20.1291 19.7999 20.2322C19.6703 20.3353 19.5096 20.3915 19.3441 20.3916C11.5316 20.3916 5.1839 14.0581 5.1839 6.23145C5.18971 6.06741 5.24802 5.90957 5.35024 5.78115C5.45247 5.65273 5.59321 5.56051 5.75177 5.51807L8.9256 4.78564C8.97974 4.7742 9.03483 4.76782 9.09015 4.7666C9.23178 4.77375 9.36892 4.81868 9.48733 4.89673C9.60573 4.97478 9.70109 5.0831 9.76349 5.21045L11.2283 8.62842C11.2642 8.72057 11.2842 8.81815 11.2874 8.91699C11.2755 9.13381 11.1791 9.33732 11.0189 9.48389L9.16876 10.9976C10.2898 13.3735 12.202 15.2857 14.5779 16.4067L16.0916 14.5566C16.2382 14.3964 16.4417 14.3 16.6585 14.2881C16.7574 14.2913 16.8549 14.3112 16.9471 14.3472L20.3651 15.812C20.4925 15.8743 20.6008 15.9697 20.6789 16.0881C20.757 16.2065 20.8019 16.3437 20.8089 16.4854C20.8079 16.5407 20.8015 16.5958 20.7899 16.6499Z" fill="#96A1B5"/>
</svg>
